# xmcd
#
# Track frame offsets:
#	150
#	14107
#	30067
#	46087
#	60712
#	84524
#	97086
#	113421
#	125256
#	139221
#	155743
#	167240
#	183927
#	199474
#	211234
#	225664
#	239149
#	256459
#	267836
#
# Disc length: 3695 seconds
#
# Revision: 0
# Processed by: cddbd v1.5.2PL0 Copyright (c) Steve Scherf et al.
# Submitted via: EasyCDDAExtractor 16.0.8.2
#
DISCID=0b0e6d13
DTITLE=Συλλογικός δίσκος - Χοροί και τραγούδια Ηπείρου 4
DYEAR=1900
DGENRE=Παραδοσιακή
TTITLE0=Κιτσάκης Αλέκος - Φεζοδερβέναγας
TTITLE1=Άνευ ερμηνευτού - Άρτα [οργανικό τσάμικο]
TTITLE2=Σιάτρας Σάββας - Είναι μικρό το μαύρο
TTITLE3=Άνευ ερμηνευτού - Μήτραινα ή Τσιτσομήτσος [οργανικό]
TTITLE4=Καψάλης Γρηγόρης - Πάπιγκο
TTITLE5=Άνευ ερμηνευτού - Σέλφος [οργανικό]
TTITLE6=Βάγιας Δημήτρης - Μπιρμπίλης
TTITLE7=Άνευ ερμηνευτού - Ζαραβίνα [οργανικό]
TTITLE8=Μπέλλος Στέλιος - Τριγώνα
TTITLE9=Βάγιας Δημήτρης - Δημάκης
TTITLE10=Άνευ ερμηνευτού - Ζαγορίσιος [οργανικό]
TTITLE11=Κιτσάκης Αλέκος - Ξενητεμένα μου πουλιά [τσάμικο]
TTITLE12=Άνευ ερμηνευτού - Αργυροκαστρίτικο [οργανικό]
TTITLE13=Σιάτρας Σάββας - Πουλάκι
TTITLE14=Άνευ ερμηνευτού - Γράβα [οργανικό]
TTITLE15=Καψάλης Γρηγόρης - Γκέκας
TTITLE16=Κώστας Α. - Πώς το τρίβουν το πιπέρι
TTITLE17=Άνευ ερμηνευτού - Νύφη [οργανικό]
TTITLE18=Άνευ ερμηνευτού - Σύρμπα [Βοβούσας]
EXTD=
EXTT0=
EXTT1=
EXTT2=
EXTT3=
EXTT4=
EXTT5=
EXTT6=
EXTT7=
EXTT8=
EXTT9=
EXTT10=
EXTT11=
EXTT12=
EXTT13=
EXTT14=
EXTT15=
EXTT16=
EXTT17=
EXTT18=
PLAYORDER=
